<?xml version="1.0" standalone="yes"?>
<svg xmlns="http://www.w3.org/2000/svg" width="152" height="150">
<path style="fill:#fbfbfb; stroke:none;" d="M0 0L0 150L152 150L152 0L0 0z"/>
<path style="fill:#dfdfdf; stroke:none;" d="M25 6L25 7L125 7L94 6L25 6M20 7L21 8L20 7z"/>
<path style="fill:#b8b8b8; stroke:none;" d="M21.6667 7.33333L22.3333 7.66667L21.6667 7.33333z"/>
<path style="fill:#aeaeae; stroke:none;" d="M7 123C11.8636 118.75 9 102.287 9 96L9 41C9 32.7864 7.37162 23.0258 12.6381 16.0432C19.2399 7.29019 30.353 9 40 9L110 9C120.09 9 131.51 7.27162 137.867 17.0154C143.347 25.4167 141 38.4186 141 48C141 72.7984 142.701 98.2806 141 123C145.469 117.06 143 104.196 143 97L143 36C143 26.3188 143.176 15.9993 133.985 10.1443C127.508 6.01764 119.317 7 112 7L67 7C52.4971 7 23.0281 1.35742 12.3295 13.1049C4.56725 21.6282 7 35.4001 7 46C7 71.4361 8.84477 97.6542 7 123z"/>
<path style="fill:#b8b8b8; stroke:none;" d="M127.667 7.33333L128.333 7.66667L127.667 7.33333z"/>
<path style="fill:#dfdfdf; stroke:none;" d="M129 7L130 8L129 7M17 8L18 9L17 8z"/>
<path style="fill:#b8b8b8; stroke:none;" d="M18 8L19 9L18 8M131 8L132 9L131 8M16 9L17 10L16 9M21 9L22 10L21 9z"/>
<path style="fill:#dfdfdf; stroke:none;" d="M22 9L22 10L127 10L95 9L22 9z"/>
<path style="fill:#b8b8b8; stroke:none;" d="M127.667 9.33333L128.333 9.66667L127.667 9.33333M133 9L134 10L133 9z"/>
<path style="fill:#dfdfdf; stroke:none;" d="M14 10L15 11L14 10M19.6667 10.3333L20.3333 10.6667L19.6667 10.3333z"/>
<path style="fill:#fbfbfb; stroke:none;" d="M21 10.5725C9.20042 13.9585 10 26.3056 10 36L10 105C10 113.573 7.55251 126.581 12.8542 133.906C19.0318 142.441 31.8426 140 41 140L100 140C108.964 140 120.354 141.865 129 139.362C141.061 135.87 140 124.094 140 114L140 45C140 36.7017 142.378 24.1257 137.347 17.0154C130.782 7.73703 118.917 10 109 10L49 10C40.364 10 29.3352 8.18069 21 10.5725z"/>
<path style="fill:#dfdfdf; stroke:none;" d="M129 10L130 11L129 10z"/>
<path style="fill:#b8b8b8; stroke:none;" d="M130 10L131 11L130 10M134 10L135 11L134 10z"/>
<path style="fill:#dfdfdf; stroke:none;" d="M135 10L136 11L135 10M13 11L14 12L13 11M17 11L18 12L17 11M131 11L132 12L131 11z"/>
<path style="fill:#b8b8b8; stroke:none;" d="M132 11L133 12L132 11z"/>
<path style="fill:#dfdfdf; stroke:none;" d="M136 11L137 12L136 11M12 12L13 13L12 12z"/>
<path style="fill:#b8b8b8; stroke:none;" d="M15 12L12 16L15 12z"/>
<path style="fill:#dfdfdf; stroke:none;" d="M16 12L17 13L16 12M133 12L137 16L133 12z"/>
<path style="fill:#b8b8b8; stroke:none;" d="M134 12L135 13L134 12z"/>
<path style="fill:#dfdfdf; stroke:none;" d="M137 12L138 13L137 12M11 13L12 14L11 13M15 13L16 14L15 13z"/>
<path style="fill:#b8b8b8; stroke:none;" d="M135 13L136 14L135 13z"/>
<path style="fill:#dfdfdf; stroke:none;" d="M138 13L139 14L138 13M10 14L11 15L10 14M14 14L15 15L14 14z"/>
<path style="fill:#b8b8b8; stroke:none;" d="M136 14L137 15L136 14z"/>
<path style="fill:#dfdfdf; stroke:none;" d="M139 14L140 15L139 14z"/>
<path style="fill:#b8b8b8; stroke:none;" d="M10 15L11 16L10 15z"/>
<path style="fill:#dfdfdf; stroke:none;" d="M13 15L14 16L13 15z"/>
<path style="fill:#b8b8b8; stroke:none;" d="M139 15L140 16L139 15M9 16L10 17L9 16z"/>
<path style="fill:#dfdfdf; stroke:none;" d="M12 16L13 17L12 16M137 16L138 17L137 16M140 16L141 17L140 16z"/>
<path style="fill:#b8b8b8; stroke:none;" d="M11 17L12 18L11 17M138 17L139 18L138 17M8 18L9 19L8 18z"/>
<path style="fill:#dfdfdf; stroke:none;" d="M11 18L12 19L11 18M138 18L139 19L138 18M141 18L142 19L141 18z"/>
<path style="fill:#b8b8b8; stroke:none;" d="M10 19L11 20L10 19M139 19L140 20L139 19z"/>
<path style="fill:#dfdfdf; stroke:none;" d="M7 20L8 21L7 20M10 20L11 21L10 20M139 20L140 21L139 20M142.333 20.6667L142.667 21.3333L142.333 20.6667z"/>
<path style="fill:#b8b8b8; stroke:none;" d="M7.33333 21.6667L7.66667 22.3333L7.33333 21.6667M9.33333 21.6667L9.66667 22.3333L9.33333 21.6667M140 22L141 23L140 22M142.333 22.6667L142.667 23.3333L142.333 22.6667z"/>
<path style="fill:#dfdfdf; stroke:none;" d="M9 23L9 128L10 128L10 55L9 23M140 23L140 127L141 127L141 55L140 23M6 25L6 125L7 125L7 56L6 25M60.6667 39.3333L61.3333 39.6667L60.6667 39.3333z"/>
<path style="fill:#b8b8b8; stroke:none;" d="M62.6667 39.3333L63.3333 39.6667L62.6667 39.3333z"/>
<path style="fill:#aeaeae; stroke:none;" d="M64 39L65 40L64 39z"/>
<path style="fill:#b8b8b8; stroke:none;" d="M65.6667 39.3333L66.3333 39.6667L65.6667 39.3333z"/>
<path style="fill:#dfdfdf; stroke:none;" d="M67 39L68 40L67 39M58 40L59 41L58 40z"/>
<path style="fill:#aeaeae; stroke:none;" d="M59 40L60 41L59 40z"/>
<path style="fill:#989898; stroke:none;" d="M60.0039 40.6528C45.4212 45.2835 53.5604 67.8265 67.9992 63.3465C83.1908 58.6328 75.2258 35.819 60.0039 40.6528z"/>
<path style="fill:#b8b8b8; stroke:none;" d="M69 40L70 41L69 40z"/>
<path style="fill:#dfdfdf; stroke:none;" d="M70 40L71 41L70 40M56 41L57 42L56 41z"/>
<path style="fill:#aeaeae; stroke:none;" d="M57 41L58 42L57 41z"/>
<path style="fill:#b8b8b8; stroke:none;" d="M71 41L72 42L71 41z"/>
<path style="fill:#dfdfdf; stroke:none;" d="M55 42L56 43L55 42z"/>
<path style="fill:#b8b8b8; stroke:none;" d="M72 42L73 43L72 42z"/>
<path style="fill:#dfdfdf; stroke:none;" d="M54 43L55 44L54 43z"/>
<path style="fill:#aeaeae; stroke:none;" d="M60 43L61 44L60 43z"/>
<path style="fill:#dfdfdf; stroke:none;" d="M61 43L62 44L61 43z"/>
<path style="fill:#fbfbfb; stroke:none;" d="M62.0046 43.7824C51.1242 47.4568 57.2439 63.7147 67.8951 59.2569C77.0811 55.4123 71.381 40.616 62.0046 43.7824z"/>
<path style="fill:#dfdfdf; stroke:none;" d="M66.6667 43.3333L67.3333 43.6667L66.6667 43.3333z"/>
<path style="fill:#b8b8b8; stroke:none;" d="M73 43L74 44L73 43z"/>
<path style="fill:#dfdfdf; stroke:none;" d="M59 44L60 45L59 44z"/>
<path style="fill:#b8b8b8; stroke:none;" d="M69 44L70 45L69 44z"/>
<path style="fill:#dfdfdf; stroke:none;" d="M74 44L75 45L74 44z"/>
<path style="fill:#b8b8b8; stroke:none;" d="M53 45L54 46L53 45z"/>
<path style="fill:#dfdfdf; stroke:none;" d="M58 45L59 46L58 45M70 45L71 46L70 45M75 45L76 46L75 45M52 46L53 47L52 46M57 46L58 47L57 46z"/>
<path style="fill:#b8b8b8; stroke:none;" d="M71 46L72 47L71 46M75 46L76 47L75 46M52 47L53 48L52 47z"/>
<path style="fill:#dfdfdf; stroke:none;" d="M56 47L57 48L56 47z"/>
<path style="fill:#aeaeae; stroke:none;" d="M52 48L53 49L52 48z"/>
<path style="fill:#dfdfdf; stroke:none;" d="M72 48L73 49L72 48M76 48L77 49L76 48z"/>
<path style="fill:#b8b8b8; stroke:none;" d="M55 49L56 50L55 49M76 49L77 50L76 49z"/>
<path style="fill:#dfdfdf; stroke:none;" d="M51 50L51 54L52 54L51 50M55 50L55 54L56 54L55 50z"/>
<path style="fill:#aeaeae; stroke:none;" d="M76 50L77 51L76 50M73.3333 51.6667L73.6667 52.3333L73.3333 51.6667M76.3333 52.6667L76.6667 53.3333L76.3333 52.6667M55 54L56 55L55 54z"/>
<path style="fill:#dfdfdf; stroke:none;" d="M72 54L73 55L72 54z"/>
<path style="fill:#b8b8b8; stroke:none;" d="M76 54L77 55L76 54z"/>
<path style="fill:#aeaeae; stroke:none;" d="M52 55L53 56L52 55z"/>
<path style="fill:#b8b8b8; stroke:none;" d="M72 55L73 56L72 55z"/>
<path style="fill:#dfdfdf; stroke:none;" d="M76 55L77 56L76 55M52 56L53 57L52 56z"/>
<path style="fill:#b8b8b8; stroke:none;" d="M56 56L57 57L56 56z"/>
<path style="fill:#dfdfdf; stroke:none;" d="M71 56L72 57L71 56M57 57L58 58L57 57z"/>
<path style="fill:#aeaeae; stroke:none;" d="M71 57L72 58L71 57z"/>
<path style="fill:#dfdfdf; stroke:none;" d="M75 57L76 58L75 57M53 58L54 59L53 58M58 58L59 59L58 58z"/>
<path style="fill:#aeaeae; stroke:none;" d="M70 58L71 59L70 58z"/>
<path style="fill:#b8b8b8; stroke:none;" d="M54 59L55 60L54 59M59 59L60 60L59 59z"/>
<path style="fill:#dfdfdf; stroke:none;" d="M60 59L61 60L60 59M68 59L69 60L68 59M74 59L75 60L74 59z"/>
<path style="fill:#aeaeae; stroke:none;" d="M55 60L56 61L55 60z"/>
<path style="fill:#b8b8b8; stroke:none;" d="M61 60L62 61L61 60z"/>
<path style="fill:#dfdfdf; stroke:none;" d="M62 60L62 61L66 61L62 60z"/>
<path style="fill:#b8b8b8; stroke:none;" d="M66 60L67 61L66 60z"/>
<path style="fill:#aeaeae; stroke:none;" d="M67 60L68 61L67 60z"/>
<path style="fill:#dfdfdf; stroke:none;" d="M73 60L74 61L73 60z"/>
<path style="fill:#b8b8b8; stroke:none;" d="M56 61L57 62L56 61z"/>
<path style="fill:#dfdfdf; stroke:none;" d="M72 61L73 62L72 61M57 62L58 63L57 62z"/>
<path style="fill:#aeaeae; stroke:none;" d="M70 62L71 63L70 62z"/>
<path style="fill:#dfdfdf; stroke:none;" d="M71 62L72 63L71 62M59 63L60 64L59 63z"/>
<path style="fill:#aeaeae; stroke:none;" d="M60 63L61 64L60 63z"/>
<path style="fill:#b8b8b8; stroke:none;" d="M68 63L69 64L68 63z"/>
<path style="fill:#dfdfdf; stroke:none;" d="M69 63L70 64L69 63M87 63L83 68L87 63z"/>
<path style="fill:#b8b8b8; stroke:none;" d="M88 63L89 64L88 63z"/>
<path style="fill:#aeaeae; stroke:none;" d="M89.6667 63.3333L90.3333 63.6667L89.6667 63.3333z"/>
<path style="fill:#b8b8b8; stroke:none;" d="M91 63L92 64L91 63z"/>
<path style="fill:#dfdfdf; stroke:none;" d="M92 63L93 64L92 63M62 64L62 65L67 65L62 64z"/>
<path style="fill:#989898; stroke:none;" d="M69 86C65.2694 82.2694 59.8274 74.2963 54.0147 74.2963C47.4925 74.2963 32.2413 97.7658 34.6219 103.852C36.6468 109.029 47.6258 107 52 107L100 107C104.151 107 113.42 108.757 115.381 103.852C118.622 95.7469 102.348 77.5078 97.9961 71.0008C96.0891 68.1492 93.8974 64.2963 89.9861 64.2963C82.4136 64.2963 72.7784 80.2879 69 86z"/>
<path style="fill:#b8b8b8; stroke:none;" d="M93 64L94 65L93 64z"/>
<path style="fill:#dfdfdf; stroke:none;" d="M94 65L95 66L94 65M95 66L96 67L95 66z"/>
<path style="fill:#b8b8b8; stroke:none;" d="M88 67L89 68L88 67z"/>
<path style="fill:#fbfbfb; stroke:none;" d="M37 103L113 103L91 67C82.1767 71.2992 78.9825 84.6174 69.9961 88.0787C64.2861 90.2781 60.212 79.9385 55.0934 78.7515C49.0215 77.3436 38.5658 98.0863 37 103z"/>
<path style="fill:#b8b8b8; stroke:none;" d="M91 67L92 68L91 67z"/>
<path style="fill:#aeaeae; stroke:none;" d="M95 67L96 68L95 67M87 68L88 69L87 68z"/>
<path style="fill:#dfdfdf; stroke:none;" d="M96 68L97 69L96 68z"/>
<path style="fill:#aeaeae; stroke:none;" d="M82 69L83 70L82 69z"/>
<path style="fill:#dfdfdf; stroke:none;" d="M92 69L93 70L92 69z"/>
<path style="fill:#b8b8b8; stroke:none;" d="M81 70L82 71L81 70M93 70L94 71L93 70z"/>
<path style="fill:#aeaeae; stroke:none;" d="M97 70L98 71L97 70z"/>
<path style="fill:#b8b8b8; stroke:none;" d="M80 71L81 72L80 71z"/>
<path style="fill:#dfdfdf; stroke:none;" d="M85 71L86 72L85 71M98 71L99 72L98 71M79 72L80 73L79 72z"/>
<path style="fill:#b8b8b8; stroke:none;" d="M84 72L85 73L84 72z"/>
<path style="fill:#dfdfdf; stroke:none;" d="M94 72L95 73L94 72M52.6667 73.3333L53.3333 73.6667L52.6667 73.3333z"/>
<path style="fill:#b8b8b8; stroke:none;" d="M54 73L55 74L54 73z"/>
<path style="fill:#dfdfdf; stroke:none;" d="M55 73L56 74L55 73z"/>
<path style="fill:#b8b8b8; stroke:none;" d="M83 73L84 74L83 73M95 73L96 74L95 73M99 73L100 74L99 73z"/>
<path style="fill:#dfdfdf; stroke:none;" d="M50 74L51 75L50 74M57 74L58 75L57 74z"/>
<path style="fill:#aeaeae; stroke:none;" d="M82 74L83 75L82 74z"/>
<path style="fill:#dfdfdf; stroke:none;" d="M100 74L101 75L100 74M58 75L59 76L58 75z"/>
<path style="fill:#aeaeae; stroke:none;" d="M77 75L78 76L77 75z"/>
<path style="fill:#dfdfdf; stroke:none;" d="M96 75L97 76L96 75z"/>
<path style="fill:#b8b8b8; stroke:none;" d="M59 76L60 77L59 76M76 76L77 77L76 76z"/>
<path style="fill:#aeaeae; stroke:none;" d="M97 76L98 77L97 76z"/>
<path style="fill:#b8b8b8; stroke:none;" d="M101 76L102 77L101 76M48 77L49 78L48 77z"/>
<path style="fill:#dfdfdf; stroke:none;" d="M53.6667 77.3333L54.3333 77.6667L53.6667 77.3333z"/>
<path style="fill:#b8b8b8; stroke:none;" d="M55 77L56 78L55 77M60 77L61 78L60 77M75 77L76 78L75 77z"/>
<path style="fill:#dfdfdf; stroke:none;" d="M80 77L81 78L80 77M102 77L103 78L102 77z"/>
<path style="fill:#b8b8b8; stroke:none;" d="M56 78L57 79L56 78M61 78L62 79L61 78z"/>
<path style="fill:#dfdfdf; stroke:none;" d="M74 78L75 79L74 78M79 78L80 79L79 78M98 78L99 79L98 78z"/>
<path style="fill:#aeaeae; stroke:none;" d="M102 78L103 79L102 78z"/>
<path style="fill:#b8b8b8; stroke:none;" d="M51 79L52 80L51 79M57 79L58 80L57 79M62 79L63 80L62 79M78 79L79 80L78 79z"/>
<path style="fill:#aeaeae; stroke:none;" d="M99 79L100 80L99 79z"/>
<path style="fill:#b8b8b8; stroke:none;" d="M103 79L104 80L103 79M46 80L47 81L46 80M58 80L59 81L58 80M63 80L64 81L63 80M77 80L78 81L77 80M59 81L60 82L59 81M64 81L65 82L64 81z"/>
<path style="fill:#aeaeae; stroke:none;" d="M72 81L73 82L72 81z"/>
<path style="fill:#b8b8b8; stroke:none;" d="M100 81L101 82L100 81z"/>
<path style="fill:#aeaeae; stroke:none;" d="M104 81L105 82L104 81z"/>
<path style="fill:#b8b8b8; stroke:none;" d="M49 82L50 83L49 82M60 82L61 83L60 82M65 82L66 83L65 82M71 82L72 83L71 82z"/>
<path style="fill:#aeaeae; stroke:none;" d="M101 82L102 83L101 82z"/>
<path style="fill:#dfdfdf; stroke:none;" d="M105 82L106 83L105 82z"/>
<path style="fill:#b8b8b8; stroke:none;" d="M44 83L45 84L44 83M61 83L62 84L61 83M66 83L67 84L66 83M70 83L71 84L70 83z"/>
<path style="fill:#dfdfdf; stroke:none;" d="M75 83L76 84L75 83M101 83L102 84L101 83z"/>
<path style="fill:#b8b8b8; stroke:none;" d="M62 84L63 85L62 84M67 84L68 85L67 84z"/>
<path style="fill:#dfdfdf; stroke:none;" d="M69 84L70 85L69 84M74 84L75 85L74 84z"/>
<path style="fill:#b8b8b8; stroke:none;" d="M102 84L103 85L102 84z"/>
<path style="fill:#aeaeae; stroke:none;" d="M106 84L107 85L106 84z"/>
<path style="fill:#b8b8b8; stroke:none;" d="M47 85L48 86L47 85M63 85L64 86L63 85M68 85L69 86L68 85M73 85L74 86L73 85z"/>
<path style="fill:#dfdfdf; stroke:none;" d="M107 85L108 86L107 85z"/>
<path style="fill:#b8b8b8; stroke:none;" d="M42 86L43 87L42 86M64 86L65 87L64 86M72 86L73 87L72 86z"/>
<path style="fill:#dfdfdf; stroke:none;" d="M103 86L104 87L103 86z"/>
<path style="fill:#b8b8b8; stroke:none;" d="M65 87L66 88L65 87M104 87L105 88L104 87M108 87L109 88L108 87M45 88L46 89L45 88M66 88L67 89L66 88z"/>
<path style="fill:#dfdfdf; stroke:none;" d="M109 88L110 89L109 88z"/>
<path style="fill:#b8b8b8; stroke:none;" d="M40 89L41 90L40 89z"/>
<path style="fill:#dfdfdf; stroke:none;" d="M67 89L68 90L67 89M105 89L106 90L105 89z"/>
<path style="fill:#aeaeae; stroke:none;" d="M106 90L107 91L106 90z"/>
<path style="fill:#b8b8b8; stroke:none;" d="M110 90L111 91L110 90z"/>
<path style="fill:#aeaeae; stroke:none;" d="M39 91L40 92L39 91z"/>
<path style="fill:#b8b8b8; stroke:none;" d="M43 91L44 92L43 91z"/>
<path style="fill:#dfdfdf; stroke:none;" d="M111 91L112 92L111 91z"/>
<path style="fill:#b8b8b8; stroke:none;" d="M38 92L39 93L38 92z"/>
<path style="fill:#dfdfdf; stroke:none;" d="M107 92L108 93L107 92z"/>
<path style="fill:#aeaeae; stroke:none;" d="M108 93L109 94L108 93z"/>
<path style="fill:#b8b8b8; stroke:none;" d="M112 93L113 94L112 93z"/>
<path style="fill:#aeaeae; stroke:none;" d="M37 94L38 95L37 94z"/>
<path style="fill:#b8b8b8; stroke:none;" d="M41 94L42 95L41 94z"/>
<path style="fill:#dfdfdf; stroke:none;" d="M113 94L114 95L113 94z"/>
<path style="fill:#b8b8b8; stroke:none;" d="M36 95L37 96L36 95z"/>
<path style="fill:#dfdfdf; stroke:none;" d="M109 95L110 96L109 95z"/>
<path style="fill:#aeaeae; stroke:none;" d="M113 95L114 96L113 95M110 96L111 97L110 96z"/>
<path style="fill:#dfdfdf; stroke:none;" d="M114 96L115 97L114 96z"/>
<path style="fill:#aeaeae; stroke:none;" d="M35 97L36 98L35 97z"/>
<path style="fill:#b8b8b8; stroke:none;" d="M39 97L40 98L39 97z"/>
<path style="fill:#dfdfdf; stroke:none;" d="M110 97L111 98L110 97z"/>
<path style="fill:#b8b8b8; stroke:none;" d="M34 98L35 99L34 98M111 98L112 99L111 98z"/>
<path style="fill:#aeaeae; stroke:none;" d="M115 98L116 99L115 98z"/>
<path style="fill:#dfdfdf; stroke:none;" d="M116 99L117 100L116 99z"/>
<path style="fill:#b8b8b8; stroke:none;" d="M33 100L34 101L33 100M37 100L38 101L37 100z"/>
<path style="fill:#dfdfdf; stroke:none;" d="M112 100L113 101L112 100z"/>
<path style="fill:#aeaeae; stroke:none;" d="M116 100L116 103L117 103L116 100M33 101L34 102L33 101M113.333 101.667L113.667 102.333L113.333 101.667z"/>
<path style="fill:#b8b8b8; stroke:none;" d="M33 102L34 103L33 102z"/>
<path style="fill:#dfdfdf; stroke:none;" d="M33 103L34 104L33 103z"/>
<path style="fill:#b8b8b8; stroke:none;" d="M37 103L38 104L37 103z"/>
<path style="fill:#dfdfdf; stroke:none;" d="M38 103L38 104L112 104L89 103L38 103z"/>
<path style="fill:#b8b8b8; stroke:none;" d="M112 103L113 104L112 103M116 103L117 104L116 103z"/>
<path style="fill:#dfdfdf; stroke:none;" d="M116 104L117 105L116 104M34 105L35 106L34 105z"/>
<path style="fill:#b8b8b8; stroke:none;" d="M115 105L116 106L115 105z"/>
<path style="fill:#dfdfdf; stroke:none;" d="M35 106L36 107L35 106M114 106L115 107L114 106M37 107L37 108L113 108L89 107L37 107z"/>
<path style="fill:#b8b8b8; stroke:none;" d="M142 119L143 120L142 119M7 120L8 121L7 120M141 121L142 122L141 121M142 122C139.452 128.646 137.742 134.897 130.999 138.583C123.06 142.922 111.741 141 103 141L44 141C29.4621 141 10.7383 142.3 9 123L7 123C7.43899 132.584 13.0746 140.927 23 142.671C36.892 145.113 52.8953 143 67 143C86.2266 143 106.929 145.197 126 142.815C134.967 141.695 145.982 131.767 142 122z"/>
<path style="fill:#dfdfdf; stroke:none;" d="M7.33333 128.667L7.66667 129.333L7.33333 128.667M142.333 128.667L142.667 129.333L142.333 128.667M10.3333 129.667L10.6667 130.333L10.3333 129.667M139 129L140 130L139 129M8 131L9 132L8 131M141 131L142 132L141 131M9 133L10 134L9 133M12 133L13 134L12 133M137 133L138 134L137 133M140 133L141 134L140 133M10 135L11 136L10 135M11 136L12 137L11 136M138 136L139 137L138 136M12 137L13 138L12 137M16 137L17 138L16 137M133 137L134 138L133 137M137 137L138 138L137 137M13 138L14 139L13 138M17 138L18 139L17 138M131 138L132 139L131 138M136 138L137 139L136 138M19.6667 139.333L20.3333 139.667L19.6667 139.333M129 139L130 140L129 139M16 140L17 141L16 140M23 140L23 141L127 141L95 140L23 140M133 140L134 141L133 140M18 141L19 142L18 141M131 141L132 142L131 141M20.6667 142.333L21.3333 142.667L20.6667 142.333M128.667 142.333L129.333 142.667L128.667 142.333z"/>
</svg>
